<svg width="74" height="84" viewBox="0 0 74 84" fill="none" xmlns="http://www.w3.org/2000/svg">
<g filter="url(#filter0_d_245_194)">
<path d="M30.75 0.9375C26.4422 0.9375 22.9375 4.44219 22.9375 8.75V13.4375H7.3125C5.5875 13.4375 4.1875 14.8375 4.1875 16.5625C4.1875 18.2875 5.5875 19.6875 7.3125 19.6875H10.6084L13.239 67.0813C13.5171 72.0469 17.6253 75.9375 22.5988 75.9375H51.4012C56.3731 75.9375 60.4829 72.0469 60.761 67.0813L63.3916 19.6875H66.6875C68.4125 19.6875 69.8125 18.2875 69.8125 16.5625C69.8125 14.8375 68.4125 13.4375 66.6875 13.4375H51.0625V8.75C51.0625 4.44219 47.5578 0.9375 43.25 0.9375H30.75ZM30.75 7.1875H43.25C44.1125 7.1875 44.8125 7.88906 44.8125 8.75V13.4375H29.1875V8.75C29.1875 7.88906 29.8875 7.1875 30.75 7.1875ZM16.8645 19.6875H57.1355L54.5201 66.7334C54.428 68.3896 53.0591 69.6875 51.4012 69.6875H22.5988C20.9425 69.6875 19.572 68.3911 19.4799 66.7365L16.8645 19.6875ZM37 26.3281C35.4891 26.3281 34.2656 27.5531 34.2656 29.0625V60.3125C34.2656 61.8219 35.4891 63.0469 37 63.0469C38.5109 63.0469 39.7344 61.8219 39.7344 60.3125V29.0625C39.7344 27.5531 38.5109 26.3281 37 26.3281ZM25.504 26.3312C23.9962 26.3843 22.8157 27.6477 22.8673 29.1571L23.9568 60.5414C24.0083 62.0179 25.2225 63.1812 26.6881 63.1812C26.7209 63.1812 26.753 63.1812 26.7858 63.1812C28.2936 63.128 29.474 61.8615 29.4225 60.3522L28.333 28.9679C28.2799 27.4601 27.0103 26.2952 25.504 26.3312ZM48.4929 26.3312C46.982 26.289 45.7201 27.4601 45.667 28.9679L44.5775 60.3522C44.5244 61.8615 45.7049 63.128 47.2142 63.1812C47.247 63.1827 47.2791 63.1812 47.3119 63.1812C48.7775 63.1812 49.9917 62.0179 50.0432 60.5414L51.1327 29.1571C51.1858 27.6477 50.0023 26.3843 48.4929 26.3312Z" fill="#D25C5C"/>
</g>
<defs>
<filter id="filter0_d_245_194" x="0.1875" y="0.9375" width="73.625" height="83" filterUnits="userSpaceOnUse" color-interpolation-filters="sRGB">
<feFlood flood-opacity="0" result="BackgroundImageFix"/>
<feColorMatrix in="SourceAlpha" type="matrix" values="0 0 0 0 0 0 0 0 0 0 0 0 0 0 0 0 0 0 127 0" result="hardAlpha"/>
<feOffset dy="4"/>
<feGaussianBlur stdDeviation="2"/>
<feComposite in2="hardAlpha" operator="out"/>
<feColorMatrix type="matrix" values="0 0 0 0 0 0 0 0 0 0 0 0 0 0 0 0 0 0 0.25 0"/>
<feBlend mode="normal" in2="BackgroundImageFix" result="effect1_dropShadow_245_194"/>
<feBlend mode="normal" in="SourceGraphic" in2="effect1_dropShadow_245_194" result="shape"/>
</filter>
</defs>
</svg>
